<svg xmlns="http://www.w3.org/2000/svg" version="1.1" xmlns:xlink="http://www.w3.org/1999/xlink" xmlns:svgjs="http://svgjs.com/svgjs" width="400" height="400"><svg width="400" height="400" viewBox="0 0 400 400" fill="none" xmlns="http://www.w3.org/2000/svg">
<rect width="400" height="400" fill="white"></rect>
<rect x="68" width="263.973" height="400" fill="white"></rect>
<path fill-rule="evenodd" clip-rule="evenodd" d="M206.841 202.421L248.027 88.7722L138.29 184.97L171.93 194.966L105.68 377.774L246.716 214.27L206.841 202.421Z" fill="#3471CC"></path>
<path d="M248.027 88.7722L249.944 89.3419C250.254 88.4889 249.939 87.5689 249.177 87.1006C248.416 86.6323 247.399 86.733 246.699 87.346L248.027 88.7722ZM206.841 202.421L204.924 201.851C204.743 202.35 204.772 202.888 205.003 203.348C205.235 203.807 205.651 204.15 206.159 204.301L206.841 202.421ZM138.29 184.97L136.962 183.544C136.413 184.026 136.157 184.741 136.29 185.422C136.423 186.104 136.925 186.648 137.608 186.851L138.29 184.97ZM171.93 194.966L173.847 195.536C174.223 194.497 173.67 193.4 172.611 193.086L171.93 194.966ZM105.68 377.774L103.763 377.204C103.435 378.108 103.81 379.079 104.656 379.516C105.501 379.953 106.578 379.731 107.218 378.988L105.68 377.774ZM246.716 214.27L248.254 215.484C248.694 214.974 248.855 214.299 248.684 213.679C248.512 213.06 248.031 212.577 247.398 212.389L246.716 214.27ZM246.11 88.2026L204.924 201.851L208.758 202.991L249.944 89.3419L246.11 88.2026ZM139.618 186.397L249.355 90.1984L246.699 87.346L136.962 183.544L139.618 186.397ZM172.611 193.086L138.971 183.09L137.608 186.851L171.248 196.846L172.611 193.086ZM107.597 378.343L173.847 195.536L170.013 194.396L103.763 377.204L107.597 378.343ZM245.178 213.055L104.142 376.559L107.218 378.988L248.254 215.484L245.178 213.055ZM206.159 204.301L246.035 216.15L247.398 212.389L207.522 200.541L206.159 204.301Z" fill="#3471CC"></path>
<path d="M162.833 40.3394C163.962 37.2828 193.878 56.663 233.992 74.6192C270.852 91.1193 310.703 104.361 316.803 108.416C315.675 111.472 268.392 105.678 231.531 89.1783C194.67 72.6782 161.705 43.396 162.833 40.3394Z" fill="white"></path>
<path d="M178.146 50.427C180.033 44.9667 183.58 40.2665 188.583 36.5949C193.586 32.9233 199.947 30.3521 207.304 29.0282C214.661 27.7044 222.869 27.6537 231.46 28.8791C240.051 30.1045 248.856 32.5819 257.373 36.1701C265.89 39.7582 273.952 44.3867 281.098 49.7913C288.244 55.1958 294.335 61.2707 299.023 67.6689C303.71 74.0672 306.903 80.6635 308.418 87.0814C309.934 93.4992 309.742 99.6129 307.855 105.073L243 77.7501L178.146 50.427Z" fill="#3471CC"></path>
<ellipse cx="70.498" cy="11.4673" rx="70.498" ry="11.4673" transform="matrix(0.923028 0.388869 -0.326251 0.943821 182.005 39.2991)" fill="#3471CC"></ellipse>
<path d="M301.827 117.857C299.674 123.69 295.874 128.719 290.643 132.658C285.412 136.596 278.854 139.366 271.342 140.809C263.83 142.253 255.512 142.342 246.863 141.071C238.214 139.801 229.402 137.195 220.932 133.404C212.462 129.612 204.499 124.709 197.498 118.974C190.497 113.239 184.594 106.784 180.128 99.9788C175.661 93.1732 172.718 86.1499 171.466 79.3099C170.214 72.4699 170.678 65.9471 172.831 60.114L237.329 88.9856L301.827 117.857Z" fill="#3471CC"></path>
<path d="M159.939 51.5179C161.067 48.4613 190.984 67.8415 231.097 85.7977C267.958 102.298 307.809 115.539 313.909 119.594C312.78 122.651 265.497 116.857 228.637 100.357C191.776 83.8567 158.811 54.5744 159.939 51.5179Z" fill="white"></path>
<path d="M146.563 92.5678C147.562 90.0884 177.266 109.478 216.838 128.671C253.201 146.307 292.366 161.476 298.426 165.517C297.427 167.997 251.275 158.405 214.913 140.769C178.55 123.133 145.564 95.0472 146.563 92.5678Z" fill="white"></path>
</svg><style>@media (prefers-color-scheme: light) { :root { filter: none; } }
</style></svg>